<?xml version="1.0" encoding="utf-8"?>
<!-- Generator: Adobe Illustrator 22.0.0, SVG Export Plug-In . SVG Version: 6.00 Build 0)  -->
<svg version="1.1" xmlns="http://www.w3.org/2000/svg" xmlns:xlink="http://www.w3.org/1999/xlink" x="0px" y="0px"
	 viewBox="0 0 800 800" style="enable-background:new 0 0 800 800;" xml:space="preserve">
<style type="text/css">
	.st0{fill:#F5C677;}
	.st1{fill:#F0BD72;}
	.st2{fill:#E7B056;}
	.st3{opacity:0.6;fill:#A67C52;}
	.st4{fill:none;}
	.st5{fill:#FFFFFF;}
</style>
<g id="Background">
	<rect class="st0" width="402.4" height="17"/>
	<rect x="352.4" y="17" class="st1" width="337.2" height="17"/>
	<rect y="17" class="st1" width="100" height="17"/>
	<rect x="402.4" class="st1" width="194.5" height="17"/>
	<rect x="352.4" y="34" class="st0" width="447.6" height="17"/>
	<rect x="125.4" y="34" class="st2" width="227.1" height="17"/>
	<rect x="689.7" y="17" class="st2" width="110.3" height="17"/>
	<rect y="34" class="st0" width="125.4" height="17"/>
	<rect x="596.9" class="st0" width="203.1" height="17"/>
	<rect x="100" y="17" class="st0" width="252.5" height="17"/>
	<rect x="352.4" y="102.1" class="st1" width="337.2" height="17"/>
	<rect x="420" y="306.4" class="st1" width="380" height="17"/>
	<rect y="102.1" class="st1" width="100" height="17"/>
	<rect x="689.7" y="102.1" class="st2" width="110.3" height="17"/>
	<rect x="100" y="102.1" class="st0" width="252.5" height="17"/>
	<rect x="397.6" y="51.1" class="st0" width="402.4" height="17"/>
	<rect x="110.3" y="68.1" class="st1" width="337.2" height="17"/>
	<rect x="700" y="68.1" class="st1" width="100" height="17"/>
	<rect x="203.1" y="51.1" class="st1" width="194.5" height="17"/>
	<rect y="85.1" class="st0" width="447.6" height="17"/>
	<rect x="447.6" y="85.1" class="st2" width="227.1" height="17"/>
	<rect y="68.1" class="st2" width="110.3" height="17"/>
	<rect x="252.5" y="306.4" class="st2" width="167.5" height="17"/>
	<rect x="674.6" y="85.1" class="st0" width="125.4" height="17"/>
	<rect y="51.1" class="st0" width="203.1" height="17"/>
	<rect x="447.6" y="68.1" class="st0" width="252.5" height="17"/>
	<rect x="352.4" y="731.9" class="st0" width="447.6" height="17"/>
	<rect x="125.4" y="731.9" class="st2" width="227.1" height="17"/>
	<rect y="731.9" class="st0" width="125.4" height="17"/>
	<rect x="397.6" y="748.9" class="st0" width="402.4" height="17"/>
	<rect x="110.3" y="766" class="st1" width="337.2" height="17"/>
	<rect x="700" y="766" class="st1" width="100" height="17"/>
	<rect x="203.1" y="748.9" class="st1" width="194.5" height="17"/>
	<rect y="783" class="st0" width="447.6" height="17"/>
	<rect x="447.6" y="783" class="st2" width="227.1" height="17"/>
	<rect y="766" class="st2" width="110.3" height="17"/>
	<rect x="674.6" y="783" class="st0" width="125.4" height="17"/>
	<rect y="748.9" class="st0" width="203.1" height="17"/>
	<rect x="447.6" y="766" class="st0" width="252.5" height="17"/>
	<rect x="397.6" y="119.1" class="st0" width="402.4" height="17"/>
	<rect x="362.8" y="136.2" class="st1" width="100" height="17"/>
	<rect x="203.1" y="119.1" class="st2" width="194.5" height="17"/>
	<rect y="136.2" class="st2" width="110.3" height="17"/>
	<rect y="119.1" class="st0" width="203.1" height="17"/>
	<rect x="110.3" y="136.2" class="st0" width="252.5" height="17"/>
	<rect x="462.8" y="136.2" class="st0" width="337.2" height="17"/>
	<rect y="153.2" class="st0" width="402.4" height="17"/>
	<rect x="352.4" y="170.2" class="st1" width="337.2" height="17"/>
	<rect y="170.2" class="st1" width="175" height="17"/>
	<rect x="402.4" y="153.2" class="st1" width="194.5" height="17"/>
	<rect x="352.4" y="187.2" class="st0" width="447.6" height="17"/>
	<rect x="125.4" y="187.2" class="st2" width="227.1" height="17"/>
	<rect x="689.7" y="170.2" class="st2" width="110.3" height="17"/>
	<rect y="187.2" class="st0" width="125.4" height="17"/>
	<rect x="596.9" y="153.2" class="st0" width="203.1" height="17"/>
	<rect x="175" y="170.2" class="st0" width="177.4" height="17"/>
	<rect x="352.4" y="255.3" class="st1" width="337.2" height="17"/>
	<rect y="255.3" class="st1" width="100" height="17"/>
	<rect x="689.7" y="255.3" class="st2" width="110.3" height="17"/>
	<rect x="100" y="255.3" class="st0" width="252.5" height="17"/>
	<rect y="306.4" class="st0" width="252.5" height="17"/>
	<rect x="397.6" y="204.3" class="st0" width="402.4" height="17"/>
	<rect y="221.3" class="st1" width="447.6" height="17"/>
	<rect x="700" y="221.3" class="st1" width="100" height="17"/>
	<rect x="203.1" y="204.3" class="st1" width="194.5" height="17"/>
	<rect y="238.3" class="st0" width="447.6" height="17"/>
	<rect x="447.6" y="238.3" class="st2" width="227.1" height="17"/>
	<rect x="674.6" y="238.3" class="st0" width="125.4" height="17"/>
	<rect y="204.3" class="st0" width="203.1" height="17"/>
	<rect x="447.6" y="221.3" class="st0" width="252.5" height="17"/>
	<rect x="352.4" y="646.8" class="st0" width="447.6" height="17"/>
	<rect x="125.4" y="646.8" class="st2" width="227.1" height="17"/>
	<rect y="646.8" class="st0" width="125.4" height="17"/>
	<rect x="352.4" y="714.9" class="st1" width="337.2" height="17"/>
	<rect y="714.9" class="st1" width="100" height="17"/>
	<rect x="689.7" y="714.9" class="st2" width="110.3" height="17"/>
	<rect x="100" y="714.9" class="st0" width="252.5" height="17"/>
	<rect x="397.6" y="663.8" class="st0" width="402.4" height="17"/>
	<rect y="680.9" class="st1" width="447.6" height="17"/>
	<rect x="700" y="680.9" class="st1" width="100" height="17"/>
	<rect x="203.1" y="663.8" class="st1" width="194.5" height="17"/>
	<rect y="697.9" class="st0" width="447.6" height="17"/>
	<rect x="447.6" y="697.9" class="st2" width="227.1" height="17"/>
	<rect x="674.6" y="697.9" class="st0" width="125.4" height="17"/>
	<rect y="663.8" class="st0" width="203.1" height="17"/>
	<rect x="447.6" y="680.9" class="st0" width="252.5" height="17"/>
	<rect x="397.6" y="272.3" class="st0" width="402.4" height="17"/>
	<rect x="462.8" y="289.4" class="st2" width="337.2" height="17"/>
	<rect x="362.8" y="289.4" class="st1" width="100" height="17"/>
	<rect x="203.1" y="272.3" class="st2" width="194.5" height="17"/>
	<rect y="289.4" class="st2" width="110.3" height="17"/>
	<rect y="272.3" class="st0" width="203.1" height="17"/>
	<rect x="110.3" y="289.4" class="st0" width="252.5" height="17"/>
	<rect y="323.4" class="st0" width="402.4" height="17"/>
	<rect x="352.4" y="340.4" class="st1" width="337.2" height="17"/>
	<rect y="340.4" class="st1" width="100" height="17"/>
	<rect x="402.4" y="323.4" class="st1" width="194.5" height="17"/>
	<rect x="352.4" y="357.4" class="st0" width="447.6" height="17"/>
	<rect x="125.4" y="357.4" class="st2" width="227.1" height="17"/>
	<rect x="689.7" y="340.4" class="st2" width="110.3" height="17"/>
	<rect y="357.4" class="st0" width="125.4" height="17"/>
	<rect x="596.9" y="323.4" class="st0" width="203.1" height="17"/>
	<rect x="100" y="340.4" class="st0" width="252.5" height="17"/>
	<rect x="352.4" y="425.5" class="st1" width="337.2" height="17"/>
	<rect x="420" y="629.8" class="st1" width="380" height="17"/>
	<rect y="425.5" class="st1" width="100" height="17"/>
	<rect x="689.7" y="425.5" class="st2" width="110.3" height="17"/>
	<rect x="100" y="425.5" class="st0" width="252.5" height="17"/>
	<rect x="397.6" y="374.5" class="st0" width="402.4" height="17"/>
	<rect x="110.3" y="391.5" class="st1" width="337.2" height="17"/>
	<rect x="700" y="391.5" class="st1" width="100" height="17"/>
	<rect x="203.1" y="374.5" class="st1" width="194.5" height="17"/>
	<rect y="408.5" class="st0" width="447.6" height="17"/>
	<rect x="447.6" y="408.5" class="st2" width="227.1" height="17"/>
	<rect y="391.5" class="st2" width="110.3" height="17"/>
	<rect x="252.5" y="629.8" class="st2" width="167.5" height="17"/>
	<rect x="674.6" y="408.5" class="st0" width="125.4" height="17"/>
	<rect y="374.5" class="st0" width="203.1" height="17"/>
	<rect x="447.6" y="391.5" class="st0" width="252.5" height="17"/>
	<rect x="397.6" y="442.6" class="st0" width="402.4" height="17"/>
	<rect x="362.8" y="459.6" class="st1" width="100" height="17"/>
	<rect x="203.1" y="442.6" class="st2" width="194.5" height="17"/>
	<rect y="459.6" class="st2" width="110.3" height="17"/>
	<rect y="442.6" class="st0" width="203.1" height="17"/>
	<rect x="110.3" y="459.6" class="st0" width="252.5" height="17"/>
	<rect x="462.8" y="459.6" class="st0" width="337.2" height="17"/>
	<rect y="476.6" class="st0" width="402.4" height="17"/>
	<rect x="352.4" y="493.6" class="st1" width="337.2" height="17"/>
	<rect y="493.6" class="st1" width="175" height="17"/>
	<rect x="402.4" y="476.6" class="st1" width="194.5" height="17"/>
	<rect x="352.4" y="510.6" class="st0" width="447.6" height="17"/>
	<rect x="125.4" y="510.6" class="st2" width="227.1" height="17"/>
	<rect x="689.7" y="493.6" class="st2" width="110.3" height="17"/>
	<rect y="510.6" class="st0" width="125.4" height="17"/>
	<rect x="596.9" y="476.6" class="st0" width="203.1" height="17"/>
	<rect x="175" y="493.6" class="st0" width="177.4" height="17"/>
	<rect x="352.4" y="578.7" class="st1" width="337.2" height="17"/>
	<rect y="578.7" class="st1" width="100" height="17"/>
	<rect x="689.7" y="578.7" class="st2" width="110.3" height="17"/>
	<rect x="100" y="578.7" class="st0" width="252.5" height="17"/>
	<rect y="629.8" class="st0" width="252.5" height="17"/>
	<rect x="397.6" y="527.7" class="st0" width="402.4" height="17"/>
	<rect y="544.7" class="st1" width="447.6" height="17"/>
	<rect x="700" y="544.7" class="st1" width="100" height="17"/>
	<rect x="203.1" y="527.7" class="st1" width="194.5" height="17"/>
	<rect y="561.7" class="st0" width="447.6" height="17"/>
	<rect x="447.6" y="561.7" class="st2" width="227.1" height="17"/>
	<rect x="674.6" y="561.7" class="st0" width="125.4" height="17"/>
	<rect y="527.7" class="st0" width="203.1" height="17"/>
	<rect x="447.6" y="544.7" class="st0" width="252.5" height="17"/>
	<rect x="397.6" y="595.7" class="st0" width="402.4" height="17"/>
	<rect x="462.8" y="612.8" class="st2" width="337.2" height="17"/>
	<rect x="362.8" y="612.8" class="st1" width="100" height="17"/>
	<rect x="203.1" y="595.7" class="st2" width="194.5" height="17"/>
	<rect y="612.8" class="st2" width="110.3" height="17"/>
	<rect y="595.7" class="st0" width="203.1" height="17"/>
	<rect x="110.3" y="612.8" class="st0" width="252.5" height="17"/>
	<path class="st3" d="M0-0.1v800h800v-800H0z M737.3,605.6H62.7V454.3l149.5,0.2v-111l-149.5,0.2V194.2h674.6v150.3L588,344.3v110.3
		l149.3-0.3V605.6z"/>
</g>
<g id="Objects">
	<path class="st4" d="M588.1,455.8H588c-23.5,0-43.7-14.4-52.3-34.8c8.7,74.5,72.1,132.5,148.9,132.5h49.4v-97.7H588.1L588.1,455.8z
		"/>
	<path class="st4" d="M265.2,403c0.1-1.4,0.2-2.7,0.2-4.1c-0.1-28.8-23.1-52.3-51.7-53.2v106.6c2.2-0.1,4.4-0.3,6.5-0.6l0,0
		c2.8-0.4,5.5-1.1,8.2-2l0,0c2.7-0.9,5.3-2,7.8-3.2l0,0c2.5-1.3,4.9-2.8,7.2-4.4l0,0c2.3-1.7,4.4-3.5,6.4-5.5l0,0
		c2-2,3.8-4.1,5.5-6.4l0,0c1.6-2.3,3.1-4.7,4.4-7.2l0,0c1.3-2.5,2.4-5.1,3.2-7.8l0,0c0.9-2.6,1.5-5.4,1.9-8.2l0,0
		C264.9,405.8,265.1,404.4,265.2,403C265.2,403,265.2,403,265.2,403z"/>
	<path class="st4" d="M537.2,415.4L537.2,415.4c0.9,2.6,2,5.3,3.2,7.8l0,0c1.3,2.5,2.7,4.9,4.4,7.2l0,0c1.6,2.3,3.5,4.4,5.5,6.4l0,0
		c2,2,4.1,3.8,6.4,5.5l0,0c2.3,1.6,4.7,3.1,7.2,4.4l0,0c2.5,1.3,5.1,2.4,7.8,3.2l0,0c2.7,0.9,5.4,1.5,8.2,2l0,0
		c2.1,0.3,4.3,0.5,6.5,0.6V345.7c-28.6,0.9-51.6,24.4-51.7,53.2c0,1.4,0.1,2.7,0.2,4.1c0,0,0,0.1,0,0.1c0.1,1.4,0.3,2.8,0.5,4.1l0,0
		C535.7,410,536.3,412.7,537.2,415.4z"/>
	<path class="st4" d="M264.4,421c-8.6,20.4-28.8,34.8-52.3,34.8h-0.2h-0.1H66.1v97.7h49.4C192.2,553.4,255.7,495.4,264.4,421z"/>
	<path class="st4" d="M186,449.6l1.5-3c2.5,1.3,5.1,2.3,7.8,3.2l-0.8,2.6h8.9l0.1-0.6c2.2,0.4,4.5,0.5,6.8,0.6V345.7h-7.1l0,0.3
		c-2.8,0.4-5.5,1.1-8.2,2l-0.7-2.2H66.1v106.7h126.4C190.3,451.6,188.1,450.7,186,449.6z M185.8,348.1l1.6,3
		c-2.5,1.3-4.9,2.8-7.1,4.4l-2-2.7C180.6,351,183.1,349.4,185.8,348.1z M171.4,358.6l2.4,2.4c-2,2-3.8,4.1-5.4,6.4l-2.8-2
		C167.4,363,169.3,360.7,171.4,358.6z M161,373l3,1.5c-1.3,2.5-2.3,5.1-3.2,7.8l-3.2-1C158.5,378.5,159.6,375.7,161,373z
		 M154.8,398.8c0-2.9,0.2-5.9,0.7-8.8l3.4,0.5c-0.4,2.7-0.6,5.5-0.6,8.3l-3.4,0.1V398.8z M157.6,416.5c-0.9-2.8-1.6-5.7-2.1-8.7
		l3.4-0.5c0.4,2.8,1.1,5.5,2,8.2L157.6,416.5z M165.7,432.4c-1.8-2.4-3.3-5-4.7-7.6l3-1.6c1.3,2.5,2.8,4.9,4.4,7.1L165.7,432.4z
		 M178.4,444.9c-2.4-1.7-4.7-3.7-6.8-5.8l2.4-2.4c2,2,4.1,3.8,6.4,5.5L178.4,444.9z"/>
	<path class="st4" d="M535.6,377.2c0.6-1.5,1.3-3,2.1-4.4l-0.1-0.1c1.4-2.6,2.9-5.2,4.7-7.6l0.2,0.1c1.8-2.4,3.7-4.6,5.8-6.7
		l-0.2-0.2c2.1-2.1,4.4-4,6.8-5.8l0.2,0.2c2.4-1.7,4.9-3.3,7.6-4.6l-0.2-0.3c2.7-1.3,5.4-2.5,8.3-3.4l0.1,0.3c2.8-0.9,5.7-1.6,8.6-2
		l-0.1-0.4c2.9-0.4,5.8-0.7,8.7-0.7h0.2l0,0.4h145.6v-98.1h-49.4C607.6,244.2,544,302.5,535.6,377.2z"/>
	<path class="st4" d="M604.9,347.9c-2.7-0.9-5.4-1.5-8.2-2l0-0.3h-7.1v106.7c2.3-0.1,4.6-0.2,6.8-0.6l0.1,0.6h8.9l-0.8-2.6
		c2.7-0.9,5.3-1.9,7.8-3.2l1.5,3c-2.1,1.1-4.3,2-6.5,2.8h126.4V345.7H605.6L604.9,347.9z M642.4,416.5l-3.2-1.1
		c0.9-2.7,1.5-5.4,2-8.2l3.4,0.5C644,410.8,643.3,413.7,642.4,416.5z M645.2,398.8v0.1l-3.4-0.1c0-2.8-0.2-5.6-0.6-8.3l3.4-0.5
		C645,392.9,645.2,395.9,645.2,398.8z M639,373c1.3,2.7,2.5,5.4,3.4,8.3l-3.2,1c-0.9-2.7-1.9-5.3-3.2-7.8L639,373z M638.9,424.8
		c-1.4,2.6-2.9,5.2-4.7,7.6l-2.8-2c1.6-2.3,3.1-4.7,4.4-7.1L638.9,424.8z M628.6,358.6c2.1,2.1,4,4.4,5.8,6.8l-2.8,2
		c-1.6-2.3-3.5-4.4-5.4-6.4L628.6,358.6z M628.4,439.1c-2.1,2.1-4.4,4.1-6.8,5.8l-2-2.8c2.3-1.6,4.4-3.5,6.4-5.5L628.4,439.1z
		 M614.2,348.1c2.6,1.4,5.2,2.9,7.6,4.7l-2,2.7c-2.3-1.7-4.7-3.1-7.1-4.4L614.2,348.1z"/>
	<path class="st5" d="M173.8,361l-2.4-2.4c-2.1,2.1-4,4.4-5.8,6.8l2.8,2C170,365.2,171.8,363,173.8,361z"/>
	<path class="st5" d="M158.9,390.5l-3.4-0.5c-0.4,2.9-0.7,5.8-0.7,8.8v0.1l3.4-0.1C158.2,396,158.4,393.2,158.9,390.5z"/>
	<path class="st5" d="M164,374.6l-3-1.5c-1.3,2.7-2.5,5.4-3.4,8.3l3.2,1C161.7,379.7,162.7,377.1,164,374.6z"/>
	<path class="st5" d="M171.6,439.1c2.1,2.1,4.4,4.1,6.8,5.8l2-2.8c-2.3-1.6-4.4-3.5-6.4-5.5L171.6,439.1z"/>
	<path class="st5" d="M187.3,351.1l-1.6-3c-2.6,1.4-5.2,2.9-7.6,4.7l2,2.7C182.5,353.9,184.9,352.4,187.3,351.1z"/>
	<path class="st5" d="M155.5,407.8c0.5,2.9,1.2,5.9,2.1,8.7l3.2-1.1c-0.9-2.7-1.5-5.4-2-8.2L155.5,407.8z"/>
	<path class="st5" d="M161.1,424.8c1.4,2.6,2.9,5.2,4.7,7.6l2.8-2c-1.6-2.3-3.1-4.7-4.4-7.1L161.1,424.8z"/>
	<path class="st5" d="M401.6,194.3h-3.3H62.7v46.4v3.4v98.1v3.4v106.7v3.4v97.7v3.4v48.8h335.7h3.3h335.7v-48.8v-3.4v-97.7v-3.4
		V345.7v-3.4v-98.1v-3.4v-46.4H401.6z M66.1,244.2h49.4c76.9,0,140.5,58.3,148.9,133c-0.6-1.5-1.3-3-2.1-4.4l0.1-0.1
		c-1.4-2.6-2.9-5.2-4.7-7.6l-0.2,0.1c-1.8-2.4-3.7-4.6-5.8-6.7l-6.8-5.7c-2.4-1.7-4.9-3.3-7.6-4.6l-8.2-3.3c-2.8-0.9-5.7-1.6-8.6-2
		l-8.8-0.6H66.1V244.2z M264.7,407.2c-0.4,2.8-1.1,5.5-1.9,8.2l0,0c-0.9,2.7-1.9,5.3-3.2,7.8l0,0c-1.3,2.5-2.7,4.9-4.4,7.2l0,0
		c-1.6,2.3-3.5,4.4-5.5,6.4l0,0c-2,2-4.1,3.8-6.4,5.5l0,0c-2.3,1.6-4.7,3.1-7.2,4.4l0,0c-2.5,1.3-5.1,2.4-7.8,3.2l0,0
		c-2.7,0.9-5.4,1.5-8.2,2l0,0c-2.1,0.3-4.3,0.5-6.5,0.6V345.7c28.6,0.9,51.6,24.4,51.7,53.2c0,1.4-0.1,2.7-0.2,4.1c0,0,0,0.1,0,0.1
		C265.1,404.4,264.9,405.8,264.7,407.2L264.7,407.2z M66.1,345.7h128.3l0.7,2.2c2.7-0.9,5.4-1.5,8.2-2l0-0.3h7.1v106.7
		c-2.3-0.1-4.6-0.2-6.8-0.6l-0.1,0.6h-8.9l0.8-2.6c-2.7-0.9-5.3-1.9-7.8-3.2l-1.5,3c2.1,1.1,4.3,2,6.5,2.8H66.1V345.7z M66.1,455.8
		h145.7h0.1h0.2c23.5,0,43.7-14.4,52.3-34.8c-8.7,74.5-72.1,132.5-148.9,132.5H66.1V455.8z M398.2,497v105.2H66.1v-45.4h49.4
		c84.5,0,153.3-68.8,153.3-153.3v-4.7v-0.2v-4.5c0-84.5-68.8-153.3-153.3-153.3H66.1v-43h332.1V303 M733.9,553.4h-49.4
		c-76.8,0-140.2-58-148.9-132.5c8.6,20.4,28.8,34.8,52.3,34.8h0.2h0.1h145.7V553.4z M534.8,403.1C534.8,403,534.8,403,534.8,403.1
		c-0.1-1.4-0.2-2.8-0.2-4.2c0.1-28.8,23.1-52.3,51.7-53.2v106.6c-2.2-0.1-4.4-0.3-6.5-0.6l0,0c-2.8-0.4-5.5-1.1-8.2-2l0,0
		c-2.7-0.9-5.3-2-7.8-3.2l0,0c-2.5-1.3-4.9-2.8-7.2-4.4l0,0c-2.3-1.7-4.4-3.5-6.4-5.5l0,0c-2-2-3.8-4.1-5.5-6.4l0,0
		c-1.6-2.3-3.1-4.7-4.4-7.2l0,0c-1.3-2.5-2.4-5.1-3.2-7.8l0,0c-0.9-2.6-1.5-5.4-1.9-8.2l0,0C535.1,405.8,534.9,404.4,534.8,403.1z
		 M733.9,452.4H607.5c2.2-0.8,4.4-1.7,6.5-2.8l-1.5-3c-2.5,1.3-5.1,2.3-7.8,3.2l0.8,2.6h-8.9l-0.1-0.6c-2.2,0.4-4.5,0.5-6.8,0.6
		V345.7h7.1l0,0.3c2.8,0.4,5.5,1.1,8.2,2l0.7-2.2h128.3V452.4z M733.9,342.2H588.3l-8.8,0.6c-3,0.4-5.9,1.1-8.6,2l-8.2,3.3
		c-2.7,1.3-5.2,2.9-7.6,4.6l-6.8,5.7c-2.1,2.1-4.1,4.3-5.8,6.7l-4.7,7.5c-0.8,1.4-1.4,2.9-2.1,4.4c8.4-74.7,72-133,148.9-133h49.4
		V342.2z M401.8,303V197.7h332.1v43h-49.4c-84.5,0-153.3,68.8-153.3,153.3v4.5v0.2v4.7c0,84.5,68.8,153.3,153.3,153.3h49.4v45.4
		H401.8V497"/>
	<path class="st5" d="M634.4,365.4c-1.7-2.4-3.7-4.7-5.8-6.8l-2.4,2.4c2,2,3.8,4.1,5.4,6.4L634.4,365.4z"/>
	<path class="st5" d="M641.8,398.8l3.4,0.1v-0.1c0-2.9-0.2-5.9-0.7-8.8l-3.4,0.5C641.6,393.2,641.8,396,641.8,398.8z"/>
	<path class="st5" d="M642.4,381.3c-0.9-2.8-2.1-5.6-3.4-8.3l-3,1.5c1.3,2.5,2.3,5.1,3.2,7.8L642.4,381.3z"/>
	<path class="st5" d="M621.6,444.9c2.4-1.7,4.7-3.7,6.8-5.8l-2.4-2.4c-2,2-4.1,3.8-6.4,5.5L621.6,444.9z"/>
	<path class="st5" d="M621.8,352.8c-2.4-1.8-5-3.3-7.6-4.7l-1.6,3c2.5,1.3,4.9,2.8,7.1,4.4L621.8,352.8z"/>
	<path class="st5" d="M639.1,415.5l3.2,1.1c0.9-2.8,1.6-5.7,2.1-8.7l-3.4-0.5C640.7,410.1,640,412.8,639.1,415.5z"/>
	<path class="st5" d="M634.3,432.4c1.8-2.4,3.3-5,4.7-7.6l-3-1.6c-1.3,2.5-2.8,4.9-4.4,7.1L634.3,432.4z"/>
</g>
<g id="Layer_3">
	<path class="st5" d="M400.2,353c-26.1,0-47.2,21.1-47.2,47.2s21.1,47.2,47.2,47.2c26.1,0,47.2-21.1,47.2-47.2S426.2,353,400.2,353z
		 M400,443.7c-24.1,0-43.6-19.5-43.6-43.6s19.5-43.6,43.6-43.6s43.6,19.5,43.6,43.6S424.1,443.7,400,443.7z"/>
</g>
</svg>
